<mxfile host="app.diagrams.net" modified="2023-07-02T16:06:35.581Z" agent="Mozilla/5.0 (Windows NT 10.0; Win64; x64) AppleWebKit/537.36 (KHTML, like Gecko) Chrome/114.0.0.0 Safari/537.36" etag="FJwPR2GnS_zlee4u_WLM" version="21.5.2" type="device">
  <diagram name="Page-1" id="3v0SYCVNvBl88Uh9KWf6">
    <mxGraphModel dx="880" dy="494" grid="1" gridSize="10" guides="1" tooltips="1" connect="1" arrows="1" fold="1" page="1" pageScale="1" pageWidth="850" pageHeight="1100" math="0" shadow="0">
      <root>
        <mxCell id="0" />
        <mxCell id="1" parent="0" />
        <mxCell id="NebSsFkUpjV1kpODtVpC-5" style="edgeStyle=orthogonalEdgeStyle;rounded=0;orthogonalLoop=1;jettySize=auto;html=1;exitX=0.5;exitY=1;exitDx=0;exitDy=0;exitPerimeter=0;entryX=0.5;entryY=0;entryDx=0;entryDy=0;" parent="1" source="NebSsFkUpjV1kpODtVpC-1" target="NebSsFkUpjV1kpODtVpC-3" edge="1">
          <mxGeometry relative="1" as="geometry" />
        </mxCell>
        <mxCell id="NebSsFkUpjV1kpODtVpC-1" value="START" style="strokeWidth=2;html=1;shape=mxgraph.flowchart.start_2;whiteSpace=wrap;" parent="1" vertex="1">
          <mxGeometry x="270" y="20" width="100" height="100" as="geometry" />
        </mxCell>
        <mxCell id="NebSsFkUpjV1kpODtVpC-7" style="edgeStyle=orthogonalEdgeStyle;rounded=0;orthogonalLoop=1;jettySize=auto;html=1;exitX=0.5;exitY=1;exitDx=0;exitDy=0;entryX=0.5;entryY=0;entryDx=0;entryDy=0;" parent="1" source="NebSsFkUpjV1kpODtVpC-3" target="NebSsFkUpjV1kpODtVpC-6" edge="1">
          <mxGeometry relative="1" as="geometry" />
        </mxCell>
        <mxCell id="NebSsFkUpjV1kpODtVpC-3" value="User Klick&lt;br&gt;Log in" style="shape=parallelogram;html=1;strokeWidth=2;perimeter=parallelogramPerimeter;whiteSpace=wrap;rounded=1;arcSize=12;size=0.23;" parent="1" vertex="1">
          <mxGeometry x="270" y="170" width="100" height="60" as="geometry" />
        </mxCell>
        <mxCell id="r0460zMkr1rLBCI4YNrn-2" style="edgeStyle=orthogonalEdgeStyle;rounded=0;orthogonalLoop=1;jettySize=auto;html=1;exitX=0.5;exitY=1;exitDx=0;exitDy=0;entryX=0.5;entryY=0;entryDx=0;entryDy=0;" edge="1" parent="1" source="NebSsFkUpjV1kpODtVpC-6" target="r0460zMkr1rLBCI4YNrn-1">
          <mxGeometry relative="1" as="geometry" />
        </mxCell>
        <mxCell id="NebSsFkUpjV1kpODtVpC-6" value="Input email password" style="shape=parallelogram;html=1;strokeWidth=2;perimeter=parallelogramPerimeter;whiteSpace=wrap;rounded=1;arcSize=12;size=0.23;" parent="1" vertex="1">
          <mxGeometry x="235" y="280" width="170" height="60" as="geometry" />
        </mxCell>
        <mxCell id="NebSsFkUpjV1kpODtVpC-10" style="edgeStyle=orthogonalEdgeStyle;rounded=0;orthogonalLoop=1;jettySize=auto;html=1;exitX=1;exitY=0.5;exitDx=0;exitDy=0;exitPerimeter=0;entryX=1;entryY=0.5;entryDx=0;entryDy=0;" parent="1" source="NebSsFkUpjV1kpODtVpC-8" target="NebSsFkUpjV1kpODtVpC-6" edge="1">
          <mxGeometry relative="1" as="geometry">
            <Array as="points">
              <mxPoint x="460" y="510" />
              <mxPoint x="460" y="310" />
            </Array>
          </mxGeometry>
        </mxCell>
        <mxCell id="NebSsFkUpjV1kpODtVpC-11" value="Tidak" style="edgeLabel;html=1;align=center;verticalAlign=middle;resizable=0;points=[];" parent="NebSsFkUpjV1kpODtVpC-10" vertex="1" connectable="0">
          <mxGeometry x="0.0525" y="2" relative="1" as="geometry">
            <mxPoint as="offset" />
          </mxGeometry>
        </mxCell>
        <mxCell id="r0460zMkr1rLBCI4YNrn-4" style="edgeStyle=orthogonalEdgeStyle;rounded=0;orthogonalLoop=1;jettySize=auto;html=1;exitX=0.5;exitY=1;exitDx=0;exitDy=0;exitPerimeter=0;entryX=0.5;entryY=0;entryDx=0;entryDy=0;" edge="1" parent="1" source="NebSsFkUpjV1kpODtVpC-8" target="NebSsFkUpjV1kpODtVpC-18">
          <mxGeometry relative="1" as="geometry" />
        </mxCell>
        <mxCell id="r0460zMkr1rLBCI4YNrn-5" value="Ya" style="edgeLabel;html=1;align=center;verticalAlign=middle;resizable=0;points=[];" vertex="1" connectable="0" parent="r0460zMkr1rLBCI4YNrn-4">
          <mxGeometry x="-0.2" relative="1" as="geometry">
            <mxPoint as="offset" />
          </mxGeometry>
        </mxCell>
        <mxCell id="NebSsFkUpjV1kpODtVpC-8" value="Data Valid ?" style="strokeWidth=2;html=1;shape=mxgraph.flowchart.decision;whiteSpace=wrap;" parent="1" vertex="1">
          <mxGeometry x="260" y="450" width="120" height="120" as="geometry" />
        </mxCell>
        <mxCell id="NebSsFkUpjV1kpODtVpC-23" style="edgeStyle=orthogonalEdgeStyle;rounded=0;orthogonalLoop=1;jettySize=auto;html=1;exitX=0.5;exitY=1;exitDx=0;exitDy=0;entryX=0.5;entryY=0;entryDx=0;entryDy=0;entryPerimeter=0;" parent="1" source="NebSsFkUpjV1kpODtVpC-18" target="NebSsFkUpjV1kpODtVpC-22" edge="1">
          <mxGeometry relative="1" as="geometry" />
        </mxCell>
        <mxCell id="NebSsFkUpjV1kpODtVpC-18" value="check data user di database" style="rounded=1;whiteSpace=wrap;html=1;absoluteArcSize=1;arcSize=14;strokeWidth=2;" parent="1" vertex="1">
          <mxGeometry x="270" y="620" width="100" height="50" as="geometry" />
        </mxCell>
        <mxCell id="NebSsFkUpjV1kpODtVpC-22" value="END" style="strokeWidth=2;html=1;shape=mxgraph.flowchart.terminator;whiteSpace=wrap;" parent="1" vertex="1">
          <mxGeometry x="270" y="740" width="100" height="60" as="geometry" />
        </mxCell>
        <mxCell id="r0460zMkr1rLBCI4YNrn-3" style="edgeStyle=orthogonalEdgeStyle;rounded=0;orthogonalLoop=1;jettySize=auto;html=1;exitX=0.5;exitY=1;exitDx=0;exitDy=0;entryX=0.5;entryY=0;entryDx=0;entryDy=0;entryPerimeter=0;" edge="1" parent="1" source="r0460zMkr1rLBCI4YNrn-1" target="NebSsFkUpjV1kpODtVpC-8">
          <mxGeometry relative="1" as="geometry" />
        </mxCell>
        <mxCell id="r0460zMkr1rLBCI4YNrn-1" value="Validate data" style="rounded=1;whiteSpace=wrap;html=1;absoluteArcSize=1;arcSize=14;strokeWidth=2;" vertex="1" parent="1">
          <mxGeometry x="270" y="370" width="100" height="50" as="geometry" />
        </mxCell>
      </root>
    </mxGraphModel>
  </diagram>
</mxfile>
